<?xml version="1.0" encoding="UTF-8"?>
<!DOCTYPE svg PUBLIC "-//W3C//DTD SVG 1.1//EN" "http://www.w3.org/Graphics/SVG/1.1/DTD/svg11.dtd">
<svg xmlns="http://www.w3.org/2000/svg" version="1.1" width="317px" height="284px" style="shape-rendering:geometricPrecision; text-rendering:geometricPrecision; image-rendering:optimizeQuality; fill-rule:evenodd; clip-rule:evenodd" xmlns:xlink="http://www.w3.org/1999/xlink">
<g><path style="opacity:0.998" fill="#bfbfbf" d="M 106.5,-0.5 C 107.167,-0.5 107.833,-0.5 108.5,-0.5C 110.807,0.977392 112.64,2.97739 114,5.5C 117.418,11.3369 121.084,17.0036 125,22.5C 125.982,23.7589 126.315,25.0922 126,26.5C 95.1616,46.585 64.495,66.9184 34,87.5C 33.3333,122.167 33.3333,156.833 34,191.5C 57.4137,207.457 80.9137,223.291 104.5,239C 106.695,240.373 109.029,240.706 111.5,240C 135.75,223.41 160.25,207.243 185,191.5C 185.5,168.502 185.667,145.502 185.5,122.5C 182.784,122.322 180.117,121.822 177.5,121C 171.783,114.284 166.45,107.284 161.5,100C 169.159,99.321 176.826,98.821 184.5,98.5C 185.756,98.5386 186.756,98.0386 187.5,97C 186.515,87.9172 186.182,78.7506 186.5,69.5C 196.319,68.506 206.319,68.1726 216.5,68.5C 217.285,115.878 217.618,162.545 217.5,208.5C 217.489,210.017 216.823,211.184 215.5,212C 179.997,234.584 144.663,257.417 109.5,280.5C 100.317,274.833 90.9837,269.333 81.5,264C 55.7702,246.607 29.7702,229.607 3.5,213C 2.66667,212.167 1.83333,211.333 1,210.5C 0.500144,199.172 0.333477,187.838 0.5,176.5C 1.16661,160.17 1.49994,143.67 1.5,127C 1.4995,110.153 0.832837,93.6529 -0.5,77.5C -0.5,75.8333 -0.5,74.1667 -0.5,72.5C 0.391268,70.7095 1.39127,68.8761 2.5,67C 37.402,44.725 72.0687,22.225 106.5,-0.5 Z"/></g>
<g><path style="opacity:0.97" fill="#020202" d="M 316.5,198.5 C 316.5,199.833 316.5,201.167 316.5,202.5C 316.174,207.937 313.841,212.437 309.5,216C 299.617,223.528 288.95,229.861 277.5,235C 255.179,250.828 232.512,266.162 209.5,281C 208.241,281.982 206.908,282.315 205.5,282C 200.813,273.308 195.313,265.142 189,257.5C 188.333,256.5 188.333,255.5 189,254.5C 194.306,250.429 200.139,247.263 206.5,245C 208.167,243.333 209.833,241.667 211.5,240C 235.469,224.773 258.969,208.94 282,192.5C 282.368,165.164 282.868,137.831 283.5,110.5C 283.613,103.092 283.113,95.7586 282,88.5C 256.918,72.3751 231.751,56.3751 206.5,40.5C 183.223,53.6219 160.89,68.1219 139.5,84C 135.682,83.8233 132.849,85.3233 131,88.5C 130.502,91.8168 130.335,95.1501 130.5,98.5C 133.311,98.8257 135.978,99.6591 138.5,101C 144.217,107.716 149.55,114.716 154.5,122C 146.477,122.657 138.477,122.49 130.5,121.5C 130.667,151.169 130.5,180.835 130,210.5C 129.5,211 129,211.5 128.5,212C 117.839,212.5 107.172,212.667 96.5,212.5C 96.8126,168.153 96.4792,123.82 95.5,79.5C 95.4548,74.0354 97.7881,69.8687 102.5,67C 136.833,44.8333 171.167,22.6667 205.5,0.5C 215.512,6.50446 225.178,13.0045 234.5,20C 261.007,35.7506 287.007,52.2506 312.5,69.5C 313.97,72.3081 314.803,75.3081 315,78.5C 315.167,118.669 315.667,158.669 316.5,198.5 Z"/></g>
<g><path style="opacity:0.894" fill="#b8b8b8" d="M 216.5,68.5 C 218.236,109.659 219.236,151.159 219.5,193C 219.719,198.432 219.052,203.599 217.5,208.5C 217.618,162.545 217.285,115.878 216.5,68.5 Z"/></g>
<g><path style="opacity:0.787" fill="#b3b3b3" d="M 186.5,69.5 C 186.182,78.7506 186.515,87.9172 187.5,97C 186.756,98.0386 185.756,98.5386 184.5,98.5C 185.143,88.7345 185.81,79.0678 186.5,69.5 Z"/></g>
<g><path style="opacity:0.783" fill="#b5b5b5" d="M -0.5,77.5 C 0.832837,93.6529 1.4995,110.153 1.5,127C 1.49994,143.67 1.16661,160.17 0.5,176.5C 0.830979,151.994 0.497646,127.661 -0.5,103.5C -0.5,94.8333 -0.5,86.1667 -0.5,77.5 Z"/></g>
</svg>
